<svg width="100" height="100" viewBox="0 0 100 100" fill="none" xmlns="http://www.w3.org/2000/svg">
  <path d="M89.8035 49.9988C89.8035 47.0285 87.9012 44.4605 85.1714 43.4756C85.451 42.2331 85.5978 40.9412 85.5978 39.6164C85.5978 30.7124 78.4066 23.5212 69.5026 23.5212C66.8853 23.5212 64.3913 24.1582 62.1928 25.3028C59.7859 19.9316 54.3408 16.1665 48.0317 16.1665C39.128 16.1665 31.9365 23.358 31.9365 32.2617C31.9365 33.0213 32.0047 33.7713 32.1219 34.5066C32.0731 34.5063 32.0244 34.5051 31.9757 34.5051C23.0717 34.5051 15.8805 41.6963 15.8805 50.6003C15.8805 59.5043 23.0717 66.6955 31.9757 66.6955H36.0546C36.0597 66.6955 36.0644 66.6947 36.0695 66.6947H43.4539C43.4588 66.6947 43.4635 66.6955 43.4683 66.6955H55.0146C55.0195 66.6955 55.0244 66.6947 55.0293 66.6947H66.7463C66.7511 66.6947 66.756 66.6955 66.7608 66.6955H82.4086C86.6641 66.6955 89.8035 62.5103 89.8035 59.4107C89.8035 56.456 89.8035 52.9691 89.8035 49.9988Z" fill="white" fill-opacity="0.1"/>
  <path d="M72.9578 38.1756C73.3211 36.6842 73.2608 35.0861 72.761 33.6285C71.7238 30.6307 68.8969 28.5929 65.7242 28.5929C64.4902 28.5929 63.3115 28.8877 62.2586 29.4139C60.8475 26.4099 57.8361 24.3262 54.3339 24.3262C49.3393 24.3262 45.2898 28.3757 45.2898 33.3703C45.2898 33.6929 45.3093 34.0114 45.3468 34.3243C44.7806 34.2265 44.1959 34.1754 43.5978 34.1754C38.603 34.1754 34.5535 38.2249 34.5535 43.2197C34.5535 48.2145 38.603 52.264 43.5978 52.264H65.7242C70.719 52.264 74.7685 48.2145 74.7685 43.2197C74.7685 41.3724 74.1226 39.6589 73.0276 38.2747C73.0064 38.2419 72.9817 38.2099 72.9578 38.1756Z" stroke="url(#paint0_linear_2_7)" stroke-width="2"/>
  <defs>
    <linearGradient id="paint0_linear_2_7" x1="35" y1="52" x2="76" y2="24" gradientUnits="userSpaceOnUse">
      <stop stop-color="#00CFFF"/>
      <stop offset="1" stop-color="#98FBFF"/>
    </linearGradient>
  </defs>
</svg> 